<?xml version="1.0" encoding="UTF-8"?>
<svg version="1.1" xmlns="http://www.w3.org/2000/svg" width="109" height="109">
<path d="M0 0 C17.49 0 34.98 0 53 0 C53 23.1 53 46.2 53 70 C35.51 70 18.02 70 0 70 C0 46.9 0 23.8 0 0 Z " fill="#FBEDEA" transform="translate(28,13)"/>
<path d="M0 0 C17.49 0 34.98 0 53 0 C53 23.1 53 46.2 53 70 C35.51 70 18.02 70 0 70 C0 46.9 0 23.8 0 0 Z M7 7 C7 25.48 7 43.96 7 63 C19.87 63 32.74 63 46 63 C46 44.52 46 26.04 46 7 C33.13 7 20.26 7 7 7 Z " fill="#DA492A" transform="translate(28,13)"/>
<path d="M0 0 C0.33 0 0.66 0 1 0 C1 14.52 1 29.04 1 44 C-4.61561928 38.38438072 -4.61561928 38.38438072 -6.60546875 35.703125 C-7.03150391 35.13722656 -7.45753906 34.57132813 -7.89648438 33.98828125 C-8.32251953 33.41464844 -8.74855469 32.84101562 -9.1875 32.25 C-12.05370755 28.03014248 -12.05370755 28.03014248 -16 25 C-16.268125 25.598125 -16.53625 26.19625 -16.8125 26.8125 C-18 29 -18 29 -19.6875 30.5 C-20.120625 30.995 -20.55375 31.49 -21 32 C-20.60112754 35.68558153 -18.75246904 37.82833033 -16.4375 40.625 C-13 44.78873239 -13 44.78873239 -13 47 C-18.28 47 -23.56 47 -29 47 C-29 41.72 -29 36.44 -29 31 C-28.34 31 -27.68 31 -27 31 C-26.73574219 30.40703125 -26.47148438 29.8140625 -26.19921875 29.203125 C-24.95629575 26.91970946 -23.69598354 25.52573277 -21.8125 23.75 C-18.66630301 20.69462107 -15.76656652 17.51026756 -12.90234375 14.19140625 C-4.41891892 4.41891892 -4.41891892 4.41891892 0 0 Z " fill="#DC4F30" transform="translate(68,25)"/>
<path d="M0 0 C4.29 0 8.58 0 13 0 C11.57757338 1.65949772 10.15484477 3.31873768 8.73046875 4.9765625 C7.5812117 6.32038903 6.43791326 7.66933547 5.30078125 9.0234375 C4.76839844 9.65507813 4.23601563 10.28671875 3.6875 10.9375 C3.19636719 11.52402344 2.70523438 12.11054687 2.19921875 12.71484375 C1.80347656 13.13894531 1.40773437 13.56304687 1 14 C0.67 14 0.34 14 0 14 C0 9.38 0 4.76 0 0 Z " fill="#DB4C2E" transform="translate(40,25)"/>
</svg>
